<svg width="375" height="122" viewBox="0 0 375 122" fill="none" xmlns="http://www.w3.org/2000/svg">
<path d="M28.8439 47.4449L28.8665 40.9215L12.5949 45.525L12.5707 52.5144L28.8439 47.4449Z" fill="#0B543F"/>
<path d="M367.506 47.0663L367.487 52.8069L351.245 48.6504L351.266 42.4997L367.506 47.0663Z" fill="#0B543F"/>
<path d="M367.465 59.1812L367.445 64.9219L351.203 60.7653L351.225 54.6147L367.465 59.1812Z" fill="#0B543F"/>
<path d="M367.423 71.2961L367.403 77.0367L351.162 72.8802L351.183 66.7295L367.423 71.2961Z" fill="#0B543F"/>
<path d="M367.384 82.4791L367.268 116.177L351.012 116.121L351.144 77.9126L367.384 82.4791Z" fill="#0B543F"/>
<path d="M28.8043 59.094L28.8268 52.5706L12.5552 57.1741L12.5311 64.1635L28.8043 59.094Z" fill="#0B543F"/>
<path d="M28.7591 72.1407L28.7816 65.6173L12.51 70.2208L12.4859 77.2102L28.7591 72.1407Z" fill="#0B543F"/>
<path d="M28.6108 115.009L28.7427 76.8004L12.4711 81.4039L12.3553 114.953L28.6108 115.009Z" fill="#0B543F"/>
<path d="M370.371 2.02641L429.975 2.23206L429.93 15.2789L424.51 15.7262L424.476 25.5114L429.89 26.9279L429.61 108.005L406.552 116.313L379.46 116.219L379.731 37.4597L351.315 28.4238L351.385 8.01846L370.371 2.02641Z" stroke="#03FDB3" stroke-width="0.5"/>
<path d="M9.3845 1.24691L-52.2744 1.03418L-52.3211 14.5603L-46.7174 15.0627L-46.7524 25.2074L-52.3627 26.6373L-52.6528 110.693L-28.86 119.47L-0.833217 119.567L-0.552663 38.2507L28.9075 29.0639L28.9816 7.5946L9.3845 1.24691Z" stroke="#03FDB3" stroke-width="0.5"/>
<path d="M292.279 2.22323L326.906 2.3427C332.429 2.36175 336.89 6.85433 336.871 12.3771L336.71 59.2243L336.548 106.071C336.529 111.594 332.036 116.056 326.514 116.037L122.057 115.332C120.537 115.326 119.045 114.919 117.733 114.152C116.421 113.384 114.929 112.977 113.409 112.972L91.2881 112.896C89.768 112.89 88.2735 113.287 86.9561 114.045C85.6387 114.804 84.1443 115.201 82.6241 115.195L49.4484 115.081C43.9256 115.062 39.4639 110.569 39.4829 105.047L39.8062 11.3522C39.8253 5.8294 44.3178 1.36772 49.8406 1.38678L253.072 2.08796C254.526 2.09297 255.967 2.4173 257.284 3.03442C258.601 3.65154 260.041 3.97586 261.496 3.98088L283.842 4.05798C285.297 4.063 286.739 3.74862 288.061 3.14061C289.382 2.53259 290.825 2.21821 292.279 2.22323Z" stroke="#03FDB3" stroke-opacity="0.71" stroke-width="0.5"/>
</svg>
