<svg width="264" height="71" viewBox="0 0 264 71" fill="none" xmlns="http://www.w3.org/2000/svg">
<path d="M51.9409 71C49.9205 71.0018 47.9022 70.9268 45.8995 70.7754C29.4311 69.5266 14.4869 63.2273 0.173206 51.5151L0 51.3733L0.228633 51.259L93.0322 4.07534L93.247 4.27626C97.6741 8.267 102.309 10.4968 107.429 11.0877C115.369 12.0056 123.53 8.77913 131.421 5.65903C139.431 2.50741 147.717 -0.786031 155.947 0.167334C161.241 0.77796 166.014 3.05107 170.531 7.11665L207.355 19.924C210.682 19.7657 214.029 19.8106 217.338 20.058C233.807 21.3068 248.751 27.6061 263.065 39.3183L264 40.0865L207.189 20.318C182.025 21.5432 156.564 33.7124 131.844 45.5546C105.676 58.0862 78.6838 71 51.9409 71ZM0.942239 51.4402C15.055 62.9633 29.7914 69.1681 45.9757 70.3893C74.3814 72.5403 103.362 58.6811 131.38 45.2709C155.885 33.5509 181.118 21.4802 206.205 19.995L170.033 7.40818L169.991 7.36878C165.564 3.37805 160.929 1.14434 155.781 0.553409C147.841 -0.3645 139.68 2.86197 131.789 5.98207C123.78 9.13369 115.5 12.4271 107.263 11.4738C102.032 10.871 97.3208 8.64913 92.8521 4.68203L0.942239 51.4402ZM208.373 20.2865L261.513 38.7747C247.656 27.6573 233.142 21.6614 217.248 20.4559C214.307 20.2368 211.335 20.1788 208.373 20.2825V20.2865Z" fill="#03FDB3" fill-opacity="0.2"/>
<path d="M61.6473 61.096C59.7934 61.0967 57.9416 61.0256 56.1047 60.8833C41.5277 59.7448 28.3018 54.1191 15.6093 43.6794L16.1843 43.4549C28.7244 53.7961 41.8187 59.3705 56.2294 60.4933C81.2265 62.4394 106.729 50.3569 131.394 38.6683C156.183 26.9246 181.81 14.8027 207.105 16.7725C221.71 17.911 234.964 23.5366 247.629 33.9764L247.054 34.2009C234.513 23.8557 221.419 18.2852 207.008 17.1625C182.018 15.2163 156.509 27.2989 131.844 38.9874C108.856 49.8645 85.1478 61.096 61.6473 61.096Z" fill="#03FDB3" fill-opacity="0.2"/>
<path d="M71.3469 51.1921C69.6825 51.1918 68.0202 51.1246 66.3724 50.9911C53.6175 49.9629 42.0613 45.007 31.0385 35.8397L31.6066 35.6191C42.5254 44.68 53.9362 49.5887 66.4832 50.5893C88.0647 52.3306 110.131 42.0248 131.415 32.0735C152.844 22.0475 175 11.6865 196.879 13.4514C209.634 14.4796 221.19 19.4356 232.213 28.6028L231.645 28.8234C220.726 19.7625 209.316 14.8539 196.769 13.8532C175.187 12.112 153.121 22.4178 131.837 32.369C112.036 41.6348 91.605 51.1921 71.3469 51.1921Z" fill="#03FDB3" fill-opacity="0.2"/>
<path d="M81.0602 41.2881C79.5693 41.2893 78.0802 41.2274 76.6054 41.103C65.7142 40.1811 55.8207 35.8949 46.433 28.0041L47.008 27.8031C56.3057 35.5995 66.0191 39.8305 76.7093 40.7327C94.8751 42.273 113.429 33.74 131.401 25.4867C149.476 17.1822 168.169 8.59402 186.633 10.158C197.524 11.0799 207.417 15.3621 216.805 23.2569L216.23 23.4775C206.932 15.6812 197.219 11.4502 186.529 10.548C168.363 9.01161 149.809 17.5407 131.837 25.794C115.216 33.4091 98.076 41.2881 81.0602 41.2881Z" fill="#03FDB3" fill-opacity="0.2"/>
<path d="M90.7736 31.392C89.4558 31.3932 88.14 31.3352 86.8383 31.2187C77.8317 30.4032 69.6286 26.7867 61.8413 20.1644L62.4164 19.9437C70.0928 26.4715 78.1157 30.0329 86.9492 30.8286C101.706 32.1563 116.803 25.4 131.408 18.8643C146.123 12.2774 161.344 5.46994 176.399 6.82119C185.406 7.63667 193.609 11.2532 201.397 17.8755L200.815 18.0961C193.145 11.5683 185.122 8.00699 176.289 7.21121C161.538 5.88359 146.435 12.6399 131.83 19.1755C118.369 25.1912 104.512 31.392 90.7736 31.392Z" fill="#03FDB3" fill-opacity="0.2"/>
<path d="M100.501 21.4999C99.3396 21.5014 98.1805 21.4447 97.0367 21.3305C89.8591 20.6214 83.3743 17.6707 77.2151 12.3168L77.7971 12.1002C83.8454 17.3594 90.1778 20.251 97.1545 20.9444C108.503 22.0672 120.129 17.0797 131.373 12.2538C142.735 7.38062 154.486 2.33803 166.132 3.49231C173.31 4.20536 179.794 7.15212 185.947 12.5059L185.372 12.7226C179.323 7.46729 172.991 4.57174 166.014 3.88232C154.659 2.75561 143.04 7.74699 131.796 12.5493C121.577 16.9734 111.018 21.4999 100.501 21.4999Z" fill="#03FDB3" fill-opacity="0.2"/>
<path d="M157.556 0.405867L157.215 0.748779L218.866 20.5744L219.207 20.2315L157.556 0.405867Z" fill="#03FDB3" fill-opacity="0.2"/>
<path d="M144.786 1.22155L144.216 1.44611L175.043 26.7133L175.612 26.4888L144.786 1.22155Z" fill="#03FDB3" fill-opacity="0.2"/>
<path d="M131.969 5.82056H131.276V45.4207H131.969V5.82056Z" fill="#03FDB3" fill-opacity="0.2"/>
<path d="M118.365 10.2225L87.5961 64.1656L88.2551 64.2871L119.024 10.3441L118.365 10.2225Z" fill="#03FDB3" fill-opacity="0.2"/>
<path d="M105.508 10.946L43.9318 70.3394L44.5286 70.5394L106.105 11.1461L105.508 10.946Z" fill="#03FDB3" fill-opacity="0.2"/>
</svg>
