<svg width="132" height="132" viewBox="0 0 132 132" fill="none" xmlns="http://www.w3.org/2000/svg">
<g id="Group 1" filter="url(#filter0_d_463_3324)">
<rect id="Rectangle" x="13" y="51.2405" width="21.1203" height="21.1203" fill="black"/>
<rect id="Rectangle_2" x="34.119" y="30.1203" width="21.1203" height="21.1203" fill="black"/>
<rect id="Rectangle_3" x="34.119" y="72.3618" width="21.1203" height="21.1203" fill="black"/>
<rect id="Rectangle_4" x="34.119" y="93.4821" width="21.1203" height="21.1203" fill="black"/>
<rect id="Rectangle_5" x="55.2404" y="9" width="21.1203" height="21.1203" fill="black"/>
<rect id="Rectangle_6" x="55.2404" y="30.1203" width="21.1203" height="21.1203" fill="black"/>
<rect id="Rectangle_7" x="55.2404" y="51.2405" width="21.1203" height="21.1203" fill="black"/>
<rect id="Rectangle_8" x="55.2404" y="72.3618" width="21.1203" height="21.1203" fill="black"/>
<rect id="Rectangle_9" x="76.3619" y="30.1203" width="21.1203" height="21.1203" fill="black"/>
<rect id="Rectangle_10" x="76.3619" y="72.3618" width="21.1203" height="21.1203" fill="black"/>
<rect id="Rectangle_11" x="76.3619" y="93.4821" width="21.1203" height="21.1203" fill="black"/>
<rect id="Rectangle_12" x="97.4833" y="51.2405" width="21.1203" height="21.1203" fill="black"/>
<g id="Rectangle 68">
<path d="M34.119 51.2405H55.2393V72.3607H34.119V51.2405Z" fill="url(#paint0_linear_463_3324)"/>
<path d="M35.119 52.2405H54.2393V71.3607H35.119V52.2405Z" stroke="url(#paint1_radial_463_3324)" stroke-opacity="0.08" stroke-width="2"/>
</g>
<g id="Rectangle 69">
<path d="M76.3619 51.2405H97.4822V72.3607H76.3619V51.2405Z" fill="url(#paint2_linear_463_3324)"/>
<path d="M77.3619 52.2405H96.4822V71.3607H77.3619V52.2405Z" stroke="url(#paint3_radial_463_3324)" stroke-opacity="0.08" stroke-width="2"/>
</g>
</g>
<defs>
<filter id="filter0_d_463_3324" x="0.2" y="0.2" width="131.204" height="131.202" filterUnits="userSpaceOnUse" color-interpolation-filters="sRGB">
<feFlood flood-opacity="0" result="BackgroundImageFix"/>
<feColorMatrix in="SourceAlpha" type="matrix" values="0 0 0 0 0 0 0 0 0 0 0 0 0 0 0 0 0 0 127 0" result="hardAlpha"/>
<feOffset dy="4"/>
<feGaussianBlur stdDeviation="6.4"/>
<feComposite in2="hardAlpha" operator="out"/>
<feColorMatrix type="matrix" values="0 0 0 0 0.0117647 0 0 0 0 0.992157 0 0 0 0 0.701961 0 0 0 0.5 0"/>
<feBlend mode="normal" in2="BackgroundImageFix" result="effect1_dropShadow_463_3324"/>
<feBlend mode="normal" in="SourceGraphic" in2="effect1_dropShadow_463_3324" result="shape"/>
</filter>
<linearGradient id="paint0_linear_463_3324" x1="34.119" y1="51.2405" x2="56.1822" y2="52.7156" gradientUnits="userSpaceOnUse">
<stop stop-color="#03FDB3"/>
<stop offset="1" stop-color="#03FDB3" stop-opacity="0.4"/>
</linearGradient>
<radialGradient id="paint1_radial_463_3324" cx="0" cy="0" r="1" gradientUnits="userSpaceOnUse" gradientTransform="translate(44.4939 61.8006) rotate(-134.493) scale(14.8039 116.151)">
<stop stop-color="#03FDB3"/>
<stop offset="1" stop-color="white" stop-opacity="0"/>
</radialGradient>
<linearGradient id="paint2_linear_463_3324" x1="76.3619" y1="51.2405" x2="98.4251" y2="52.7156" gradientUnits="userSpaceOnUse">
<stop stop-color="#03FDB3"/>
<stop offset="1" stop-color="#03FDB3" stop-opacity="0.4"/>
</linearGradient>
<radialGradient id="paint3_radial_463_3324" cx="0" cy="0" r="1" gradientUnits="userSpaceOnUse" gradientTransform="translate(86.7368 61.8006) rotate(-134.493) scale(14.8039 116.151)">
<stop stop-color="#03FDB3"/>
<stop offset="1" stop-color="white" stop-opacity="0"/>
</radialGradient>
</defs>
</svg>
