<svg width="41" height="37" viewBox="0 0 41 37" fill="none" xmlns="http://www.w3.org/2000/svg">
<g id="Group 48095809">
<path id="Vector" d="M40 32.5228C40 33.5679 39.5891 34.5701 38.8577 35.3091C38.1263 36.048 37.1343 36.4632 36.1 36.4632H4.9C3.86566 36.4632 2.87368 36.048 2.14228 35.3091C1.41089 34.5701 1 33.5679 1 32.5228V4.94035C1 3.89531 1.41089 2.89306 2.14228 2.1541C2.87368 1.41514 3.86566 1 4.9 1H14.65L18.55 6.91053H36.1C37.1343 6.91053 38.1263 7.32567 38.8577 8.06463C39.5891 8.80359 40 9.80584 40 10.8509V32.5228Z" stroke="#C3C3C3" stroke-linecap="round" stroke-linejoin="round"/>
<path id="Vector_2" d="M22.06 16.7615V28.5825" stroke="#C3C3C3" stroke-width="2" stroke-linecap="round" stroke-linejoin="round"/>
<path id="Vector_3" d="M16.21 22.6717H27.91" stroke="#C3C3C3" stroke-width="2" stroke-linecap="round" stroke-linejoin="round"/>
</g>
</svg>
