<svg width="30" height="27" viewBox="0 0 30 27" fill="none" xmlns="http://www.w3.org/2000/svg">
<path id="Vector 240" d="M0 14.5V12.5C0 11.9477 0.447715 11.5 1 11.5H21.5C22.0523 11.5 22.5 11.0523 22.5 10.5V8H19.5C18.9477 8 18.5 7.55228 18.5 7V4H15.5C14.9477 4 14.5 3.55228 14.5 3V1C14.5 0.447715 14.9477 0 15.5 0H17.5C18.0523 0 18.5 0.447715 18.5 1V4H21.5C22.0523 4 22.5 4.44772 22.5 5V8H25.5C26.0523 8 26.5 8.44771 26.5 9V10.5C26.5 11.0523 26.9477 11.5 27.5 11.5H29C29.5523 11.5 30 11.9477 30 12.5V14.5C30 15.0523 29.5523 15.5 29 15.5H27.5C26.9477 15.5 26.5 15.9477 26.5 16.5V18C26.5 18.5523 26.0523 19 25.5 19H22.5V22C22.5 22.5523 22.0523 23 21.5 23H18.5V26C18.5 26.5523 18.0523 27 17.5 27H15.5C14.9477 27 14.5 26.5523 14.5 26V24C14.5 23.4477 14.9477 23 15.5 23H18.5V20C18.5 19.4477 18.9477 19 19.5 19H22.5V16.5C22.5 15.9477 22.0523 15.5 21.5 15.5H1C0.447715 15.5 0 15.0523 0 14.5Z" fill="white"/>
</svg>
