<svg width="30" height="30" viewBox="0 0 30 30" fill="none" xmlns="http://www.w3.org/2000/svg">
<g id="help-circle">
<path id="Vector" d="M15 27.5C21.9036 27.5 27.5 21.9036 27.5 15C27.5 8.09644 21.9036 2.5 15 2.5C8.09644 2.5 2.5 8.09644 2.5 15C2.5 21.9036 8.09644 27.5 15 27.5Z" stroke="#5D5C5C" stroke-linecap="round" stroke-linejoin="round"/>
<path id="Vector_2" d="M11.3625 11.25C11.6564 10.4146 12.2365 9.71013 13 9.26142C13.7635 8.8127 14.6612 8.64867 15.534 8.79839C16.4069 8.94811 17.1986 9.40191 17.7689 10.0794C18.3392 10.7569 18.6514 11.6144 18.65 12.5C18.65 15 14.9 16.25 14.9 16.25" stroke="#DEDEDE" stroke-width="2" stroke-linecap="round" stroke-linejoin="round"/>
<path id="Vector_3" d="M15 21.25H15.0125" stroke="#DEDEDE" stroke-width="2" stroke-linecap="round" stroke-linejoin="round"/>
</g>
</svg>
